control3min_grf.mot
version=1
nRows=17
nColumns 19
inDegrees=yes
endheader
time	1_ground_force_vx	1_ground_force_vy	1_ground_force_vz	1_ground_force_px	1_ground_force_py	1_ground_force_pz	1_ground_torque_x	1_ground_torque_y	1_ground_torque_z	2_ground_force_vx	2_ground_force_vy	2_ground_force_vz	2_ground_force_px	2_ground_force_py	2_ground_force_pz	2_ground_torque_x	2_ground_torque_y	2_ground_torque_z
            0.005000	            7.992511	          306.927186	          -25.163418	           -0.172006	            0.005950	           -0.338951	            0.024366	            0.935712	           -0.076714	           -4.457992	          303.736303	           28.069241	           -0.158420	            0.005974	           -0.715039	            0.006917	           -0.471291	           -0.043553
            0.005500	            8.498370	          302.599531	          -24.862229	           -0.171710	            0.005950	           -0.339156	            0.029408	            1.047139	           -0.086035	           -4.351890	          300.239687	           27.540508	           -0.158252	            0.005973	           -0.714658	            0.006777	           -0.467578	           -0.042890
            0.006000	            8.454974	          299.171359	          -24.143107	           -0.171827	            0.005950	           -0.339131	            0.030316	            1.072712	           -0.086568	           -4.433312	          296.743398	           26.730286	           -0.158279	            0.005974	           -0.714964	            0.006597	           -0.441577	           -0.039777
            0.006500	            8.410161	          296.646647	          -23.924535	           -0.171988	            0.005948	           -0.338498	            0.025947	            0.915213	           -0.073812	           -4.327087	          293.245717	           26.483122	           -0.158038	            0.005974	           -0.714893	            0.006563	           -0.444788	           -0.040169
            0.007000	            8.732927	          291.417402	          -23.580900	           -0.171372	            0.005951	           -0.339295	            0.026158	            0.872907	           -0.070634	           -4.270515	          290.485662	           25.910109	           -0.158162	            0.005975	           -0.715184	            0.007294	           -0.496168	           -0.044256
            0.007500	            8.597192	          289.071592	          -23.040336	           -0.171504	            0.005947	           -0.338412	            0.023198	            0.780008	           -0.062170	           -4.203850	          284.962432	           25.608809	           -0.157650	            0.005974	           -0.714337	            0.007344	           -0.497843	           -0.044740
            0.008000	            8.506880	          285.284785	          -22.781206	           -0.172293	            0.005948	           -0.338490	            0.021917	            0.735019	           -0.058694	           -4.050254	          281.281951	           25.032470	           -0.157155	            0.005976	           -0.714446	            0.006624	           -0.460022	           -0.040939
            0.008500	            8.645932	          280.056155	          -22.574683	           -0.171746	            0.005950	           -0.339049	            0.028649	            0.928005	           -0.074804	           -4.083353	          277.416318	           24.549411	           -0.157202	            0.005975	           -0.714341	            0.006523	           -0.443187	           -0.039219
            0.009000	            8.556367	          277.169134	          -21.944840	           -0.172063	            0.005949	           -0.338802	            0.029790	            0.965011	           -0.076405	           -4.023252	          273.733885	           24.442394	           -0.157427	            0.005974	           -0.714176	            0.006631	           -0.451162	           -0.040285
            0.009500	            8.878561	          273.202368	          -21.733362	           -0.171755	            0.005949	           -0.338811	            0.030059	            0.924933	           -0.073579	           -3.871691	          270.606222	           23.774170	           -0.157469	            0.005975	           -0.714390	            0.006475	           -0.452536	           -0.039758
            0.010000	            8.834170	          270.857106	          -21.330594	           -0.172162	            0.005946	           -0.338232	            0.027081	            0.830306	           -0.065388	           -3.810926	          266.739588	           23.666496	           -0.156662	            0.005977	           -0.714210	            0.006646	           -0.465201	           -0.041275
            0.010500	            8.927296	          266.709864	          -21.073464	           -0.171933	            0.005947	           -0.338293	            0.024434	            0.729986	           -0.057678	           -3.937745	          262.873845	           23.136548	           -0.157001	            0.005973	           -0.713596	            0.006254	           -0.417501	           -0.036746
            0.011000	            9.020716	          262.201636	          -20.726168	           -0.171238	            0.005949	           -0.338879	            0.023584	            0.685506	           -0.054187	           -4.018234	          259.191180	           22.935735	           -0.156731	            0.005976	           -0.714063	            0.006447	           -0.415884	           -0.036801
            0.011500	            9.067379	          258.956470	          -20.648484	           -0.171316	            0.005948	           -0.338458	            0.024586	            0.702148	           -0.055987	           -3.774303	          256.432136	           22.268786	           -0.156804	            0.005975	           -0.713802	            0.006024	           -0.409280	           -0.035542
            0.012000	            9.299382	          255.527731	          -19.792477	           -0.171284	            0.005948	           -0.338593	            0.031599	            0.868270	           -0.067254	           -3.946581	          252.197410	           21.878328	           -0.156213	            0.005977	           -0.713649	            0.006295	           -0.402261	           -0.034896
            0.012500	            9.208369	          252.463000	          -19.759533	           -0.171365	            0.005946	           -0.338037	            0.031368	            0.860002	           -0.067310	           -3.604133	          248.148320	           21.582165	           -0.156006	            0.005976	           -0.713429	            0.007066	           -0.486498	           -0.042312
            0.013000	            9.026323	          248.315871	          -19.547577	           -0.171669	            0.005946	           -0.338028	            0.029097	            0.800456	           -0.063012	           -3.501376	          245.572605	           21.009789	           -0.156215	            0.005978	           -0.713927	            0.006575	           -0.461150	           -0.039453
